<?xml version="1.0" encoding="UTF-8" standalone="no"?>
<!-- Created with Inkscape (http://www.inkscape.org/) -->

<svg
   xmlns:dc="http://purl.org/dc/elements/1.1/"
   xmlns:cc="http://creativecommons.org/ns#"
   xmlns:rdf="http://www.w3.org/1999/02/22-rdf-syntax-ns#"
   xmlns:svg="http://www.w3.org/2000/svg"
   xmlns="http://www.w3.org/2000/svg"
   xmlns:xlink="http://www.w3.org/1999/xlink"
   xmlns:sodipodi="http://sodipodi.sourceforge.net/DTD/sodipodi-0.dtd"
   xmlns:inkscape="http://www.inkscape.org/namespaces/inkscape"
   width="210mm"
   height="297mm"
   viewBox="0 0 210 297"
   version="1.1"
   id="svg8"
   inkscape:version="0.92.3 (2405546, 2018-03-11)"
   sodipodi:docname="Logo.svg">
  <defs
     id="defs2">
    <inkscape:perspective
       sodipodi:type="inkscape:persp3d"
       inkscape:vp_x="0 : 148.5 : 1"
       inkscape:vp_y="0 : 1000 : 0"
       inkscape:vp_z="210 : 148.5 : 1"
       inkscape:persp3d-origin="105 : 99 : 1"
       id="perspective4748" />
    <inkscape:path-effect
       effect="spiro"
       id="path-effect180"
       is_visible="true" />
  </defs>
  <sodipodi:namedview
     id="base"
     pagecolor="#ffffff"
     bordercolor="#666666"
     borderopacity="1.0"
     inkscape:pageopacity="0.0"
     inkscape:pageshadow="2"
     inkscape:zoom="0.35"
     inkscape:cx="400"
     inkscape:cy="674.28571"
     inkscape:document-units="mm"
     inkscape:current-layer="layer1"
     showgrid="false"
     inkscape:snap-text-baseline="true"
     inkscape:window-width="1920"
     inkscape:window-height="1018"
     inkscape:window-x="-8"
     inkscape:window-y="-8"
     inkscape:window-maximized="1" />
  <metadata
     id="metadata5">
    <rdf:RDF>
      <cc:Work
         rdf:about="">
        <dc:format>image/svg+xml</dc:format>
        <dc:type
           rdf:resource="http://purl.org/dc/dcmitype/StillImage" />
        <dc:title></dc:title>
      </cc:Work>
    </rdf:RDF>
  </metadata>
  <g
     inkscape:label="Capa 1"
     inkscape:groupmode="layer"
     id="layer1">
    <path
       style="fill:#ff5555;fill-opacity:0;stroke-width:0.26458332"
       id="path10"
       d="m 1.044678,167.19959 c 0.6631269,-4.63067 1.5000788,-9.23834 2.3031705,-13.84798 1.1991843,-7.2913 3.5327659,-14.30267 5.9299827,-21.26781 2.2296468,-6.02985 4.6013428,-12.0028 6.6742578,-18.08939 1.347311,-4.39318 2.432745,-8.86168 3.630153,-13.29861 1.532537,-5.186144 3.111132,-10.360347 4.521555,-15.581586 1.204434,-4.530572 1.687699,-9.200436 2.4964,-13.804982 1.00207,-4.851768 1.695794,-9.74384 2.122078,-14.677657 0.145253,-1.962515 0.245409,-3.928748 0.291557,-5.896163 0.01328,-0.565939 0.135837,-1.85184 -0.03749,-2.483543 3.360103,-1.534459 6.586781,-3.403317 10.080305,-4.603377 0.363789,-0.124963 -0.0281,0.768821 -0.0369,1.153374 -0.01148,0.501417 -0.01728,1.002948 -0.02389,1.504453 -0.02673,2.021874 -0.04091,4.043846 -0.05253,6.06585 -0.02381,4.976326 -0.03403,9.95281 -0.01934,14.929181 0.201655,5.996257 -0.361662,11.951539 -1.031259,17.899917 -0.802719,6.653998 -1.957683,13.254738 -2.709672,19.914963 -0.491344,6.30102 -0.87562,12.59557 -1.680273,18.86623 -0.436436,5.48194 -2.013807,10.7357 -3.362762,16.03342 -2.320567,7.28486 -3.131933,14.90388 -4.199739,22.43882 -0.935937,6.42526 -1.582219,12.88854 -1.935158,19.37118 -0.08542,1.59489 -0.117194,3.19163 -0.145877,4.78825 0,0 -9.935539,5.03799 -9.935539,5.03799 v 0 c 0.03427,-1.62436 0.07204,-3.2491 0.193207,-4.86996 0.50858,-6.54882 1.254482,-13.07725 2.175873,-19.58076 1.053586,-7.51837 1.728182,-15.14692 3.940827,-22.44327 1.325677,-5.27735 2.995459,-10.48502 3.461469,-15.94046 0.860796,-6.26722 1.265278,-12.56019 1.730393,-18.8661 0.740648,-6.65887 1.877372,-13.259743 2.691519,-19.909156 0.688988,-5.895372 1.252334,-11.795956 0.995154,-17.741844 0.0159,-4.972415 0.0075,-9.94492 -0.0064,-14.917327 -0.0086,-2.500464 -0.0016,-5.003009 -0.05417,-7.503076 -0.0078,-0.369437 -0.342784,-0.902726 -0.03552,-1.107992 3.194497,-2.134079 6.716162,-3.732239 10.07424,-5.598359 -0.230518,0.61277 -0.153569,2.002306 -0.174937,2.559709 -0.07647,1.994852 -0.150384,3.9903 -0.325924,5.97971 -0.448334,4.952587 -1.082061,9.880849 -2.059284,14.759062 -0.86932,4.634902 -1.317824,9.35284 -2.529007,13.924293 -1.411779,5.203819 -2.929517,10.380239 -4.456975,15.550118 -1.208553,4.470252 -2.30469,8.969052 -3.667684,13.393282 -2.068874,6.12282 -4.505369,12.10627 -6.785528,18.15195 -2.432814,6.87834 -4.76003,13.82458 -5.911071,21.05326 -0.721754,4.51741 -1.527411,9.02058 -2.129256,13.55613 0,0 -10.0058822,5.09826 -10.0058822,5.09826 z"
       inkscape:connector-curvature="0" />
    <path
       style="fill:#ff5555;fill-opacity:0;stroke-width:0.26458332"
       id="path12"
       d="m 8.6042017,217.84839 c 0.08576,-3.58545 0.070862,-7.17281 0.065282,-10.75911 0.2851571,-4.1669 1.1662373,-8.2634 1.8863473,-12.37003 0.660266,-4.10771 1.186522,-8.23183 2.014684,-12.3098 0.961277,-4.47258 2.324623,-8.84413 3.657402,-13.21628 1.070909,-4.58779 2.649055,-9.02999 3.805204,-13.59223 0.160457,-0.80906 0.342938,-1.61406 0.481371,-2.42718 0.469373,-2.75696 0.779274,-5.53353 1.328847,-8.27887 0.06268,-0.31312 1.270285,-5.73739 1.344124,-6.06952 1.327053,-5.24289 2.127626,-10.58674 2.824434,-15.94254 0.457189,-4.54219 1.060804,-9.06145 1.85738,-13.55586 0.377502,-2.0773 0.674174,-4.16694 0.911909,-6.26433 0,0 10.010519,-4.954345 10.010519,-4.954345 v 0 c -0.258528,2.136935 -0.586983,4.263655 -0.990547,6.378445 -0.81592,4.4853 -1.477424,8.98467 -1.912774,13.5254 -0.717576,5.39728 -1.499101,10.78745 -2.861432,16.06825 -0.658056,2.9529 -1.353338,5.88851 -1.85475,8.87334 -1.336234,7.95433 0.420712,-2.31124 -0.760807,5.41035 -0.12692,0.82946 -0.303377,1.65058 -0.455062,2.47587 -1.076378,4.60027 -2.736189,9.03086 -3.762302,13.64703 -1.362701,4.32306 -2.666205,8.67288 -3.651282,13.09973 -0.888846,4.06383 -1.41471,8.18233 -2.067294,12.28982 -0.687452,4.05299 -1.521741,8.0862 -1.930655,12.18103 -0.0055,3.56411 -0.02113,7.12933 0.06528,10.69258 0,0 -10.0058818,5.09825 -10.0058818,5.09825 z"
       inkscape:connector-curvature="0" />
    <path
       style="fill:#ff8080;stroke:#000000;stroke-width:0.26458332px;stroke-linecap:butt;stroke-linejoin:miter;stroke-opacity:1"
       d="M 37.601296,195.82237 C 57.848201,91.873103 84.824353,191.73505 84.824353,191.73505 L 57.848201,91.873103 C 53.026837,122.66765 44.357465,161.15821 37.601296,195.82237 Z"
       id="path14"
       inkscape:connector-curvature="0"
       sodipodi:nodetypes="cccc" />
    <path
       style="fill:none;stroke:#000000;stroke-width:0.26458332px;stroke-linecap:butt;stroke-linejoin:miter;stroke-opacity:1"
       d="M 67.27976,225.94047 Z"
       id="path16"
       inkscape:connector-curvature="0" />
    <path
       style="fill:#ff8080;fill-opacity:0;stroke-width:0.26458332"
       id="path26"
       d="m 98.863532,105.61816 c 0.98856,4.79334 2.122778,9.55405 3.379218,14.28381 1.07606,4.58024 2.49778,9.06645 3.77974,13.59048 0.98731,3.54925 1.81577,7.13419 2.49265,10.75479 0.66122,2.74275 1.05266,5.52537 1.44511,8.31389 0.4669,2.48163 0.67001,4.99093 0.75932,7.51067 0.0799,3.333 0.0645,6.6675 0.0745,10.0013 5.3e-4,2.52745 0.022,5.05483 0.0352,7.58223 0.01,1.17162 0.003,2.34324 0.002,3.51487 0,0 -9.99544,5.09269 -9.99544,5.09269 v 0 c -7.9e-4,-1.17308 -0.007,-2.34614 0.005,-3.51919 0.0174,-2.54111 0.0459,-5.08218 0.0482,-7.62337 0.008,-3.31658 0.0122,-6.63364 -0.0842,-9.94921 -0.10016,-2.47836 -0.26922,-4.95286 -0.71523,-7.39725 -0.426954,-2.77554 -0.701327,-5.57551 -1.376052,-8.31076 -0.620844,-3.59993 -1.490334,-7.1431 -2.412838,-10.67658 -1.266875,-4.54131 -2.600045,-9.06666 -3.700933,-13.65187 -1.255366,-4.73931 -2.356967,-9.51701 -3.625218,-14.25158 0,0 9.889178,-5.26492 9.889178,-5.26492 z"
       inkscape:connector-curvature="0" />
    <path
       style="fill:#ff8080;fill-opacity:0;stroke-width:0.26458332"
       id="path28"
       d="m 99.262405,184.44515 c -0.714626,-5.11986 -1.470311,-10.23221 -2.039662,-15.37109 -0.732862,-5.12155 -1.328463,-10.26702 -2.127197,-15.37828 -0.7903,-4.84132 -1.500188,-9.68997 -2.399832,-14.51242 -0.795785,-3.98434 -1.251334,-8.02217 -1.54623,-12.071 -0.132837,-2.34884 -0.147418,-4.70242 -0.156747,-7.05438 0,0 9.989893,-5.08767 9.989893,-5.08767 v 0 c -0.0183,2.34178 -0.0355,4.68461 0.0625,7.02509 0.18965,4.03138 0.58191,8.05155 1.34927,12.01816 0.90533,4.82752 1.68246,9.67054 2.43737,14.5242 0.84755,5.12821 1.30849,10.32186 2.08607,15.46242 0.55384,5.11528 1.24989,10.22526 2.28176,15.2677 0,0 -9.937195,5.17727 -9.937195,5.17727 z"
       inkscape:connector-curvature="0" />
    <path
       style="fill:#ff8080;fill-opacity:0;stroke-width:0.26458332"
       id="path30"
       d="m 98.173893,77.60595 c 1.047417,4.263355 2.717287,8.343297 4.049167,12.524782 0.20749,0.583869 0.41499,1.167741 0.62248,1.75161 0,0 -9.705712,5.358654 -9.705712,5.358654 v 0 c -0.200935,-0.599813 -0.401871,-1.199628 -0.602806,-1.799442 -1.288664,-4.2033 -2.901516,-8.290379 -4.204083,-12.486729 0,0 9.840954,-5.348875 9.840954,-5.348875 z"
       inkscape:connector-curvature="0" />
    <path
       style="fill:#ff8080;fill-opacity:0;stroke-width:0.26458332"
       id="path32"
       d="m 44.296216,145.10973 c -0.116785,4.93518 -0.09627,9.87251 -0.10214,14.80875 -0.159965,3.4859 -0.477041,6.96215 -0.93005,10.42127 0,0 -9.911271,4.87108 -9.911271,4.87108 v 0 c 0.546471,-3.41518 0.899335,-6.85937 1.072216,-10.31474 -0.0058,-4.90154 0.01545,-9.80422 -0.102139,-14.70467 0,0 9.973384,-5.08169 9.973384,-5.08169 z"
       inkscape:connector-curvature="0" />
    <path
       style="fill:#ff8080;fill-opacity:0;stroke-width:0.26458332"
       id="path34"
       d="m -508.69122,164.43177 c 6.69219,0.30659 13.18869,-1.64229 19.63603,-3.15361 6.72375,-1.86184 13.52539,-3.55368 20.03364,-6.10112 3.20352,-1.25392 5.20726,-2.23777 8.28259,-3.66582 1.15023,-0.66941 4.66085,-2.56198 3.4507,-2.00822 -2.06155,0.94337 -3.79672,2.69855 -6.01207,3.18031 -1.2813,0.27864 2.04009,-1.64987 3.01363,-2.52825 3.1955,-2.88316 5.86869,-6.19138 8.58877,-9.50961 4.93943,-6.60798 9.99339,-13.19159 14.30777,-20.2375 0.86947,-1.41998 1.65946,-2.88713 2.4892,-4.3307 4.38295,-7.9311 8.20293,-16.141216 11.2691,-24.666726 2.07619,-5.65028 3.52936,-11.484395 5.11728,-17.280932 1.31085,-5.657919 2.53024,-11.345486 3.48134,-17.076621 0.69006,-4.378989 0.93046,-8.805939 1.07555,-13.230537 0,0 9.83798,-4.967909 9.83798,-4.967909 v 0 c -0.17735,4.477075 -0.40418,8.959612 -1.09246,13.393174 -0.92705,5.758143 -2.13895,11.470341 -3.39553,17.163679 -1.60558,5.848263 -3.09367,11.731813 -5.21952,17.421916 -3.08303,8.60331 -6.97386,16.869926 -11.33374,24.900226 -0.82479,1.46341 -1.60692,2.95169 -2.47436,4.39024 -4.26813,7.07841 -9.33463,13.65759 -14.2077,20.31798 -2.68245,3.3564 -5.29937,6.6896 -8.42878,9.64915 -0.96102,0.90887 -1.85719,1.91265 -2.96024,2.64264 -4.05098,2.6809 -8.28251,5.07902 -12.45822,7.56114 -1.13887,0.67696 -2.32204,1.27642 -3.48303,1.91464 -3.18087,1.42817 -4.91508,2.26091 -8.24259,3.51681 -6.5536,2.4735 -13.36762,4.17435 -20.11529,6.01661 -6.65819,1.59314 -13.33365,3.45626 -20.2452,3.28978 0,0 9.08515,-6.60074 9.08515,-6.60074 z"
       inkscape:connector-curvature="0" />
    <path
       style="fill:#ff8080;fill-opacity:0;stroke-width:0.26458332"
       id="path36"
       d="m -403.84415,34.456732 c 0.64998,3.498652 1.44952,6.992149 2.36789,10.432727 0.7288,2.607596 1.57282,5.206664 2.82586,7.613684 0.86233,1.732198 1.87092,3.385929 2.74516,5.110308 0.84447,1.815076 1.86089,3.506087 3.00246,5.144784 1.323,1.818909 2.81014,3.521921 4.34441,5.164666 1.23592,1.555597 2.35516,3.212481 3.52255,4.827535 1.21336,1.55717 2.60805,2.950085 3.93827,4.403346 1.60589,1.551273 3.08507,3.2267 4.47133,4.975225 1.13752,1.327558 1.88772,2.876098 2.76156,4.368226 0.71983,1.389343 1.797,2.534245 2.78495,3.732599 0.87204,1.147373 1.73424,2.291895 2.59676,3.444121 1.21576,1.328814 2.23676,2.800717 3.15229,4.348265 1.04984,1.801612 2.16017,3.569862 3.16826,5.395592 1.12442,1.67915 2.2471,3.36605 3.16095,5.17058 0.47474,1.09945 0.91318,2.20926 1.27881,3.34947 0,0 -9.84666,5.39543 -9.84666,5.39543 v 0 c -0.32533,-1.09244 -0.7453,-2.14386 -1.17258,-3.20011 -0.88556,-1.80521 -2.03861,-3.45684 -3.1424,-5.13365 -0.98311,-1.82469 -2.08521,-3.58655 -3.15039,-5.36303 -0.89374,-1.52234 -1.93612,-2.92251 -3.12381,-4.228714 -0.83846,-1.144098 -1.70656,-2.261003 -2.5518,-3.400931 -1.02928,-1.241681 -2.13632,-2.444062 -2.87665,-3.890586 -0.84188,-1.448084 -1.57239,-2.947991 -2.65216,-4.248889 -1.36774,-1.732433 -2.84411,-3.371238 -4.44153,-4.896903 -1.36213,-1.477708 -2.76191,-2.921783 -3.99645,-4.512347 -1.16671,-1.567267 -2.22737,-3.2078 -3.4357,-4.736425 -1.54175,-1.708372 -3.12277,-3.398991 -4.44873,-5.284073 -1.15104,-1.69023 -2.21395,-3.423224 -3.10028,-5.270608 -0.8468,-1.730992 -1.86291,-3.377094 -2.69925,-5.115322 -1.28553,-2.48321 -2.14313,-5.17021 -2.86658,-7.86479 -0.94427,-3.448857 -1.63467,-6.97503 -2.50701,-10.442289 0,0 9.89047,-5.287891 9.89047,-5.287891 z"
       inkscape:connector-curvature="0" />
    <path
       style="fill:#ff8080;fill-opacity:0;stroke-width:0.26458332"
       id="path38"
       d="m -382.61655,41.862456 c 1.32879,3.922581 2.98284,7.727691 4.47517,11.591632 1.86362,4.856858 4.08458,9.565632 6.22077,14.306351 1.60587,4.070398 3.4512,8.063659 4.64257,12.281231 1.14181,4.011829 2.74383,7.873169 4.15763,11.793095 1.85457,5.403011 3.81238,10.754835 6.01964,16.025035 3.71539,9.26045 7.73669,18.39104 11.78563,27.509 3.69996,8.21715 7.4018,16.43373 11.04845,24.67471 1.8597,4.05056 3.43471,8.21885 5.21096,12.30506 1.03048,2.67589 2.29328,5.24868 3.47838,7.85769 2.33174,5.24957 5.2307,10.21863 7.83293,15.33656 4.31051,8.27379 8.49236,16.6029 12.44799,25.05257 4.61422,9.47796 8.47262,19.29072 12.5812,28.99087 3.79534,8.97069 7.6201,17.92318 11.56113,26.82998 1.80977,4.41769 4.25016,8.54427 6.08158,12.94855 0.6428,1.6084 1.354,3.19058 1.93542,4.82264 0,0 -9.82633,5.42451 -9.82633,5.42451 v 0 c -0.54139,-1.63134 -1.2451,-3.20273 -1.83719,-4.81602 -1.69918,-4.4549 -4.02804,-8.64606 -5.7789,-13.08243 -3.78862,-8.98332 -7.59631,-17.95754 -11.3398,-26.96058 -4.14163,-9.6674 -8.08479,-19.42439 -12.70188,-28.88079 -3.93798,-8.44116 -8.0863,-16.77023 -12.4878,-24.98094 -2.67409,-5.09579 -5.72498,-9.98803 -8.15766,-15.20592 -1.23047,-2.60169 -2.49293,-5.19045 -3.46049,-7.90587 -1.73069,-4.11322 -3.30723,-8.28412 -5.03729,-12.39799 -3.50473,-8.3106 -7.0363,-16.61154 -10.74476,-24.8336 -4.04029,-9.11464 -8.20782,-18.17271 -12.11381,-27.34655 -2.24481,-5.26935 -4.22976,-10.623 -6.12894,-16.024145 -1.46789,-3.928549 -3.09825,-7.806457 -4.26591,-11.838721 -1.12051,-4.188687 -2.92147,-8.142745 -4.47042,-12.184345 -2.12019,-4.768562 -4.40145,-9.467628 -6.27505,-14.341806 -1.49696,-3.874902 -3.13759,-7.682722 -4.68471,-11.535137 0,0 9.83149,-5.41464 9.83149,-5.41464 z"
       inkscape:connector-curvature="0" />
    <path
       style="fill:#ff00ff;fill-opacity:0;stroke-width:0.26458332"
       id="path40"
       d="m -393.32789,47.453661 c 1.23937,11.420218 1.51101,22.907513 1.79324,34.381593 0.2644,31.308246 0.10962,62.618666 0.14185,93.927856 0.0568,27.29259 0.27551,54.58427 0.49712,81.87587 0.11248,12.09288 0.22024,24.18579 0.34698,36.27855 0.0127,1.10267 0.0243,2.20535 0.0383,3.308 0.018,1.42624 -0.0851,2.72696 0.25797,4.10112 0.0345,0.13822 0.16044,-0.47982 0.0283,-0.42651 -3.20763,1.29411 -6.06193,3.65916 -9.47222,4.23664 -0.89061,0.15082 0.22262,-1.79279 0.33393,-2.68917 0.74245,-10.50949 0.72641,-21.05697 0.79087,-31.58754 0.0445,-11.77449 0.0556,-23.549 0.01,-35.32347 -0.0604,-9.71328 -0.0445,-19.42668 -0.0609,-29.14006 -0.009,-8.91963 0.006,-17.83929 -0.0349,-26.75885 -0.0188,-6.37833 -0.0365,-12.7533 -0.26392,-19.12776 -0.24961,-6.30159 -1.26339,-12.52634 -2.21017,-18.74995 -0.89668,-5.76059 -1.15271,-11.58606 -1.31686,-17.4047 0.0939,-6.6332 -0.2195,-13.23771 -0.70728,-19.85021 -0.32163,-6.488419 -1.03244,-12.943744 -1.68934,-19.403501 -0.63376,-4.758293 -1.04826,-9.538179 -1.32789,-14.328902 0.11681,-2.351256 -0.69782,-5.487035 0.0293,-7.755567 0.22601,-0.70512 0.63474,-1.337979 0.95211,-2.00697 1.78302,-2.680515 4.44545,-4.384654 7.23818,-5.882674 4.50151,-2.414628 8.95254,-4.941499 13.59466,-7.073374 2.34275,-1.075899 9.54124,-2.625947 11.77956,-3.153349 13.26029,-2.695654 26.77245,-4.399179 40.30409,-4.87734 2.80006,-0.09894 5.60342,-0.04942 8.40515,-0.07413 11.39468,0.238848 22.60542,2.470857 33.29024,6.413995 2.42729,0.89576 4.84569,1.838992 7.16286,2.98995 2.23467,1.109972 4.30818,2.518484 6.46226,3.777729 1.90201,1.542838 3.96158,2.909528 5.706,4.628512 8.70365,8.576668 13.39757,20.232682 16.93623,31.680817 1.17345,3.796294 2.11117,7.661484 3.16676,11.492224 5.64099,23.16688 8.98629,46.80411 11.6739,70.46952 1.76084,17.62549 2.64861,35.33455 2.83197,53.04423 -0.084,7.13114 -0.1353,14.42394 -2.12116,21.34312 -0.87898,3.06256 -1.46241,3.9022 -2.85875,6.63598 -0.66422,0.85657 -1.23569,1.7939 -1.99265,2.56972 -0.75721,0.77609 -1.58459,1.50885 -2.52067,2.05607 -4.13798,2.41902 -8.29238,4.84434 -12.66014,6.81848 -1.55499,0.70282 -8.74706,1.45093 -9.98507,1.49424 -2.45057,0.0857 -4.90323,-0.0938 -7.35484,-0.14073 -20.02612,-1.93457 -39.68501,-6.75179 -58.89323,-12.61995 -4.78975,-1.46329 -9.5322,-3.07722 -14.29829,-4.61583 -20.98749,-6.88908 -41.57335,-14.92228 -61.74232,-23.91887 -1.45325,-0.66455 -2.89396,-1.35727 -4.35978,-1.99364 -1.02674,-0.44574 -3.5714,-1.70532 -5.03261,-1.48214 -0.4349,0.0664 -1.49442,0.92399 -1.09964,0.72987 9.25576,-4.55095 9.53754,-7.73961 8.34795,-2.72656 0.0397,0.94662 0.007,1.89912 0.11922,2.83985 1.09969,9.18227 6.21152,17.71765 10.65652,25.61018 8.84674,13.74255 19.10773,26.60063 30.16258,38.63121 2.62689,2.85874 5.34088,5.6362 8.01132,8.45431 14.7153,14.88379 30.60459,28.5283 46.36955,42.27242 3.82981,3.26745 7.50924,6.70121 11.14605,10.17955 0,0 -9.24388,5.66693 -9.24388,5.66693 v 0 c -3.44297,-3.5764 -6.92928,-7.11216 -10.62347,-10.43321 -15.43847,-14.08208 -31.24232,-27.78262 -45.99099,-42.60085 -2.69679,-2.81408 -5.43668,-5.58747 -8.09038,-8.44222 -6.18117,-6.64954 -8.53876,-9.4656 -14.21471,-16.42904 -3.81238,-4.67714 -8.32757,-10.32377 -11.86018,-15.26472 -1.60505,-2.24491 -3.08857,-4.57425 -4.63286,-6.86138 -5.20549,-8.93701 -10.83527,-18.20564 -11.748,-28.74221 0.0539,-0.71471 -0.37923,-1.67391 0.16169,-2.14414 3.10049,-2.69527 6.71364,-4.74803 10.22323,-6.88351 0.39867,-0.24257 0.92416,-0.23149 1.38816,-0.18166 3.29605,0.35396 6.02803,2.9794 9.04709,4.01805 19.63756,9.56757 39.95195,17.65453 60.71007,24.46094 4.77814,1.51767 9.53064,3.11856 14.33444,4.55301 19.39091,5.79029 39.29319,10.42027 59.52127,11.84637 6.18438,-0.0873 7.41374,0.19958 13.08781,-0.87735 1.48605,-0.28205 5.13895,-2.44548 4.3952,-1.12839 -1.17486,2.08053 -3.96439,2.66947 -5.98527,3.9442 -1.78016,1.1229 7.15667,-4.55237 4.71387,-4.20099 1.43484,-2.53267 2.18399,-3.57752 3.11038,-6.44026 2.2142,-6.84232 2.34507,-14.17008 2.55012,-21.27841 0.0578,-17.74865 -0.63238,-35.50518 -2.34275,-53.176 -2.51781,-23.64927 -5.65419,-47.29638 -11.46714,-70.3952 -1.09721,-3.78299 -2.0749,-7.602709 -3.29164,-11.348966 -3.64351,-11.218124 -8.39204,-22.622782 -17.032,-30.977636 -1.72332,-1.666425 -3.73645,-3.004298 -5.60467,-4.506446 -2.1186,-1.228805 -4.16174,-2.598013 -6.35574,-3.686413 -2.2837,-1.13288 -4.65919,-2.07934 -7.05004,-2.963871 -10.61474,-3.927067 -21.77523,-5.967881 -33.08884,-6.149424 -2.78813,0.03676 -5.57813,0.0013 -8.36436,0.110267 -13.57325,0.531252 -27.1318,2.273417 -40.39642,5.175012 -2.14344,0.54451 -4.30604,1.018413 -6.4303,1.63353 -1.83788,0.532196 -4.85704,3.625876 -5.44859,1.806223 -0.61849,-1.902547 3.48639,-2.042938 4.91704,-3.441306 0.89506,-0.874842 -2.21326,1.173694 -3.27501,1.836349 -0.83966,0.524031 -1.67021,1.074144 -2.42126,1.718751 -0.58107,0.498711 -1.03555,1.128303 -1.55334,1.692453 -0.35269,0.546161 -0.80259,1.040648 -1.05807,1.638485 -0.76411,1.787985 -0.0265,5.587333 -0.18542,7.570105 0.20109,4.79326 0.60328,9.571736 1.216,14.330889 0.58068,6.486876 1.28207,12.963956 1.61573,19.470896 0.46133,6.612782 0.91692,13.215892 0.8168,19.850512 0.13068,5.78366 0.37044,11.5737 1.21785,17.30459 0.91913,6.26472 1.99742,12.51751 2.26322,18.85559 0.28554,6.40772 0.25125,12.8132 0.16645,19.22657 -0.0403,8.93104 -0.0257,17.86219 -0.033,26.7933 -0.014,9.73151 0.006,19.46303 -0.0463,29.19447 -0.0389,11.78294 -0.0101,23.56589 -0.0468,35.3488 -0.0424,10.49081 -0.0899,20.9831 -0.37163,31.47074 -0.28398,6.52171 0.58208,3.22823 -10.0987,9.60329 -0.23013,0.13737 -0.40095,-0.39296 -0.4709,-0.65167 -0.24294,-0.89855 -0.10994,-3.78524 -0.10306,-4.32835 0.0143,-1.1158 0.0259,-2.2316 0.039,-3.34743 0.13031,-12.21398 0.24543,-24.42813 0.36647,-36.64223 0.2385,-27.45661 0.47586,-54.91346 0.47893,-82.3714 -0.0569,-31.12282 -0.12266,-62.2546 -1.18005,-93.362811 -0.47124,-11.293318 -0.85349,-22.651251 -2.75423,-33.815424 0,0 9.9372,-5.177263 9.9372,-5.177263 z"
       inkscape:connector-curvature="0" />
    <use
       id="use42"
       inkscape:spray-origin="#path40"
       xlink:href="#path40"
       x="0"
       y="0"
       width="100%"
       height="100%"
       transform="translate(11.62196,-85.604917)" />
    <use
       id="use44"
       inkscape:spray-origin="#path40"
       xlink:href="#path40"
       x="0"
       y="0"
       width="100%"
       height="100%"
       transform="translate(22.647649,-91.146817)" />
    <use
       id="use46"
       inkscape:spray-origin="#path40"
       xlink:href="#path40"
       x="0"
       y="0"
       width="100%"
       height="100%"
       transform="translate(6.1560899,-91.438316)" />
    <use
       id="use48"
       inkscape:spray-origin="#path40"
       xlink:href="#path40"
       x="0"
       y="0"
       width="100%"
       height="100%"
       transform="translate(-15.998083,-72.024569)" />
    <use
       id="use50"
       inkscape:spray-origin="#path40"
       xlink:href="#path40"
       x="0"
       y="0"
       width="100%"
       height="100%"
       transform="translate(-28.82549,-68.051478)" />
    <use
       id="use52"
       inkscape:spray-origin="#path40"
       xlink:href="#path40"
       x="0"
       y="0"
       width="100%"
       height="100%"
       transform="translate(18.50725,-81.310414)" />
    <use
       id="use54"
       inkscape:spray-origin="#path40"
       xlink:href="#path40"
       x="0"
       y="0"
       width="100%"
       height="100%"
       transform="translate(-1.2156486,-78.090204)" />
    <use
       id="use56"
       inkscape:spray-origin="#path40"
       xlink:href="#path40"
       x="0"
       y="0"
       width="100%"
       height="100%"
       transform="translate(-16.970203,-82.330301)" />
    <use
       id="use58"
       inkscape:spray-origin="#path40"
       xlink:href="#path40"
       x="0"
       y="0"
       width="100%"
       height="100%"
       transform="translate(17.434201,-52.479684)" />
    <use
       id="use60"
       inkscape:spray-origin="#path40"
       xlink:href="#path40"
       x="0"
       y="0"
       width="100%"
       height="100%"
       transform="translate(-9.6471261,-56.749059)" />
    <use
       id="use62"
       inkscape:spray-origin="#path40"
       xlink:href="#path40"
       x="0"
       y="0"
       width="100%"
       height="100%"
       transform="translate(1.5551816,-64.027839)" />
    <use
       id="use64"
       inkscape:spray-origin="#path40"
       xlink:href="#path40"
       x="0"
       y="0"
       width="100%"
       height="100%"
       transform="translate(-4.2273136,-46.789456)" />
    <use
       id="use66"
       inkscape:spray-origin="#path40"
       xlink:href="#path40"
       x="0"
       y="0"
       width="100%"
       height="100%"
       transform="translate(-5.30328,-36.509549)" />
    <use
       id="use68"
       inkscape:spray-origin="#path40"
       xlink:href="#path40"
       x="0"
       y="0"
       width="100%"
       height="100%"
       transform="translate(11.505356,-20.038543)" />
    <use
       id="use70"
       inkscape:spray-origin="#path40"
       xlink:href="#path40"
       x="0"
       y="0"
       width="100%"
       height="100%"
       transform="translate(7.4490554,-12.276194)" />
    <use
       id="use72"
       inkscape:spray-origin="#path40"
       xlink:href="#path40"
       x="0"
       y="0"
       width="100%"
       height="100%"
       transform="translate(3.0447427,-12.863889)" />
    <use
       id="use74"
       inkscape:spray-origin="#path40"
       xlink:href="#path40"
       x="0"
       y="0"
       width="100%"
       height="100%"
       transform="translate(-1.8682105,-1.1076686)" />
    <use
       id="use76"
       inkscape:spray-origin="#path40"
       xlink:href="#path40"
       x="0"
       y="0"
       width="100%"
       height="100%"
       transform="translate(6.5701189,-15.496638)" />
    <use
       id="use78"
       inkscape:spray-origin="#path40"
       xlink:href="#path40"
       x="0"
       y="0"
       width="100%"
       height="100%"
       transform="translate(6.440174,-0.97010613)" />
    <use
       id="use80"
       inkscape:spray-origin="#path40"
       xlink:href="#path40"
       x="0"
       y="0"
       width="100%"
       height="100%"
       transform="translate(-30.647466,-24.352352)" />
    <use
       id="use82"
       inkscape:spray-origin="#path40"
       xlink:href="#path40"
       x="0"
       y="0"
       width="100%"
       height="100%"
       transform="translate(18.336313,-18.194876)" />
    <use
       id="use84"
       inkscape:spray-origin="#path40"
       xlink:href="#path40"
       x="0"
       y="0"
       width="100%"
       height="100%"
       transform="translate(2.4743938,-21.603333)" />
    <use
       id="use86"
       inkscape:spray-origin="#path40"
       xlink:href="#path40"
       x="0"
       y="0"
       width="100%"
       height="100%"
       transform="translate(-3.9310354,7.8788473)" />
    <use
       id="use88"
       inkscape:spray-origin="#path40"
       xlink:href="#path40"
       x="0"
       y="0"
       width="100%"
       height="100%"
       transform="translate(-10.8535,-6.8637573)" />
    <use
       id="use90"
       inkscape:spray-origin="#path40"
       xlink:href="#path40"
       x="0"
       y="0"
       width="100%"
       height="100%"
       transform="translate(-0.27459442,-31.54825)" />
    <use
       id="use92"
       inkscape:spray-origin="#path40"
       xlink:href="#path40"
       x="0"
       y="0"
       width="100%"
       height="100%"
       transform="translate(12.483691,0.65354862)" />
    <use
       id="use94"
       inkscape:spray-origin="#path40"
       xlink:href="#path40"
       x="0"
       y="0"
       width="100%"
       height="100%"
       transform="translate(19.055295,-20.110378)" />
    <use
       id="use96"
       inkscape:spray-origin="#path40"
       xlink:href="#path40"
       x="0"
       y="0"
       width="100%"
       height="100%"
       transform="translate(5.9284047,-43.292363)" />
    <use
       id="use98"
       inkscape:spray-origin="#path40"
       xlink:href="#path40"
       x="0"
       y="0"
       width="100%"
       height="100%"
       transform="translate(-8.3852277,-47.612388)" />
    <use
       id="use100"
       inkscape:spray-origin="#path40"
       xlink:href="#path40"
       x="0"
       y="0"
       width="100%"
       height="100%"
       transform="translate(30.874604,-22.742105)" />
    <use
       id="use102"
       inkscape:spray-origin="#path40"
       xlink:href="#path40"
       x="0"
       y="0"
       width="100%"
       height="100%"
       transform="translate(-23.332201,-57.763074)" />
    <use
       id="use104"
       inkscape:spray-origin="#path40"
       xlink:href="#path40"
       x="0"
       y="0"
       width="100%"
       height="100%"
       transform="translate(-8.6596916,-81.540585)" />
    <use
       id="use106"
       inkscape:spray-origin="#path40"
       xlink:href="#path40"
       x="0"
       y="0"
       width="100%"
       height="100%"
       transform="translate(-24.924545,-52.582115)" />
    <use
       id="use108"
       inkscape:spray-origin="#path40"
       xlink:href="#path40"
       x="0"
       y="0"
       width="100%"
       height="100%"
       transform="translate(-39.293688,-73.594369)" />
    <use
       id="use110"
       inkscape:spray-origin="#path40"
       xlink:href="#path40"
       x="0"
       y="0"
       width="100%"
       height="100%"
       transform="translate(-30.211041,-40.816836)" />
    <use
       id="use112"
       inkscape:spray-origin="#path40"
       xlink:href="#path40"
       x="0"
       y="0"
       width="100%"
       height="100%"
       transform="translate(-16.604839,-29.89634)" />
    <use
       id="use114"
       inkscape:spray-origin="#path40"
       xlink:href="#path40"
       x="0"
       y="0"
       width="100%"
       height="100%"
       transform="translate(-37.708494,-3.6580697)" />
    <use
       id="use116"
       inkscape:spray-origin="#path40"
       xlink:href="#path40"
       x="0"
       y="0"
       width="100%"
       height="100%"
       transform="translate(-50.47696,16.870432)" />
    <use
       id="use118"
       inkscape:spray-origin="#path40"
       xlink:href="#path40"
       x="0"
       y="0"
       width="100%"
       height="100%"
       transform="translate(-58.90329,29.920016)" />
    <use
       id="use120"
       inkscape:spray-origin="#path40"
       xlink:href="#path40"
       x="0"
       y="0"
       width="100%"
       height="100%"
       transform="translate(-37.433399,52.501944)" />
    <use
       id="use122"
       inkscape:spray-origin="#path40"
       xlink:href="#path40"
       x="0"
       y="0"
       width="100%"
       height="100%"
       transform="translate(-33.110884,63.514513)" />
    <use
       id="use124"
       inkscape:spray-origin="#path40"
       xlink:href="#path40"
       x="0"
       y="0"
       width="100%"
       height="100%"
       transform="translate(-34.695187,48.925764)" />
    <use
       id="use126"
       inkscape:spray-origin="#path40"
       xlink:href="#path40"
       x="0"
       y="0"
       width="100%"
       height="100%"
       transform="translate(-37.028077,36.456014)" />
    <use
       id="use128"
       inkscape:spray-origin="#path40"
       xlink:href="#path40"
       x="0"
       y="0"
       width="100%"
       height="100%"
       transform="translate(-40.620518,71.518147)" />
    <use
       id="use130"
       inkscape:spray-origin="#path40"
       xlink:href="#path40"
       x="0"
       y="0"
       width="100%"
       height="100%"
       transform="translate(-31.678563,-27.920862)" />
    <use
       id="use132"
       inkscape:spray-origin="#path40"
       xlink:href="#path40"
       x="0"
       y="0"
       width="100%"
       height="100%"
       transform="translate(-8.8293578,-33.25575)" />
    <use
       id="use134"
       inkscape:spray-origin="#path40"
       xlink:href="#path40"
       x="0"
       y="0"
       width="100%"
       height="100%"
       transform="translate(-17.801331,23.589294)" />
    <use
       id="use136"
       inkscape:spray-origin="#path40"
       xlink:href="#path40"
       x="0"
       y="0"
       width="100%"
       height="100%"
       transform="translate(-21.199465,31.865832)" />
    <use
       id="use138"
       inkscape:spray-origin="#path40"
       xlink:href="#path40"
       x="0"
       y="0"
       width="100%"
       height="100%"
       transform="translate(7.2795171,31.941067)" />
    <use
       id="use140"
       inkscape:spray-origin="#path40"
       xlink:href="#path40"
       x="0"
       y="0"
       width="100%"
       height="100%"
       transform="translate(-1.249543,30.58384)" />
    <use
       id="use142"
       inkscape:spray-origin="#path40"
       xlink:href="#path40"
       x="0"
       y="0"
       width="100%"
       height="100%"
       transform="translate(29.683864,50.528365)" />
    <use
       id="use144"
       inkscape:spray-origin="#path40"
       xlink:href="#path40"
       x="0"
       y="0"
       width="100%"
       height="100%"
       transform="translate(8.2535684,44.747281)" />
    <use
       id="use146"
       inkscape:spray-origin="#path40"
       xlink:href="#path40"
       x="0"
       y="0"
       width="100%"
       height="100%"
       transform="translate(24.871449,25.059006)" />
    <use
       id="use148"
       inkscape:spray-origin="#path40"
       xlink:href="#path40"
       x="0"
       y="0"
       width="100%"
       height="100%"
       transform="translate(6.7338803,32.20566)" />
    <use
       id="use150"
       inkscape:spray-origin="#path40"
       xlink:href="#path40"
       x="0"
       y="0"
       width="100%"
       height="100%"
       transform="translate(34.772372,18.133558)" />
    <use
       id="use152"
       inkscape:spray-origin="#path40"
       xlink:href="#path40"
       x="0"
       y="0"
       width="100%"
       height="100%"
       transform="translate(0.97040399,20.389816)" />
    <use
       id="use154"
       inkscape:spray-origin="#path40"
       xlink:href="#path40"
       x="0"
       y="0"
       width="100%"
       height="100%"
       transform="translate(21.588551,-19.384318)" />
    <use
       id="use156"
       inkscape:spray-origin="#path40"
       xlink:href="#path40"
       x="0"
       y="0"
       width="100%"
       height="100%"
       transform="translate(12.881533,6.6950873)" />
    <use
       id="use158"
       inkscape:spray-origin="#path40"
       xlink:href="#path40"
       x="0"
       y="0"
       width="100%"
       height="100%"
       transform="translate(24.381004,-18.275842)" />
    <use
       id="use160"
       inkscape:spray-origin="#path40"
       xlink:href="#path40"
       x="0"
       y="0"
       width="100%"
       height="100%"
       transform="translate(2.4060982,-25.813331)" />
    <use
       id="use162"
       inkscape:spray-origin="#path40"
       xlink:href="#path40"
       x="0"
       y="0"
       width="100%"
       height="100%"
       transform="translate(-8.2247932,-7.4448698)" />
    <use
       id="use164"
       inkscape:spray-origin="#path40"
       xlink:href="#path40"
       x="0"
       y="0"
       width="100%"
       height="100%"
       transform="translate(-33.091456,-25.590808)" />
    <use
       id="use166"
       inkscape:spray-origin="#path40"
       xlink:href="#path40"
       x="0"
       y="0"
       width="100%"
       height="100%"
       transform="translate(-33.044904,-27.712373)" />
    <use
       id="use168"
       inkscape:spray-origin="#path40"
       xlink:href="#path40"
       x="0"
       y="0"
       width="100%"
       height="100%"
       transform="translate(-4.440861,-29.698028)" />
    <use
       id="use170"
       inkscape:spray-origin="#path40"
       xlink:href="#path40"
       x="0"
       y="0"
       width="100%"
       height="100%"
       transform="translate(-14.273637,-11.080607)" />
    <use
       id="use172"
       inkscape:spray-origin="#path40"
       xlink:href="#path40"
       x="0"
       y="0"
       width="100%"
       height="100%"
       transform="translate(-8.6264482,-19.585405)" />
    <use
       id="use174"
       inkscape:spray-origin="#path40"
       xlink:href="#path40"
       x="0"
       y="0"
       width="100%"
       height="100%"
       transform="translate(-25.22341,-15.635825)" />
    <use
       id="use176"
       inkscape:spray-origin="#path40"
       xlink:href="#path40"
       x="0"
       y="0"
       width="100%"
       height="100%"
       transform="translate(-4.0340554,5.4392795)" />
    <path
       style="fill:none;stroke:#000000;stroke-width:0.26458332px;stroke-linecap:butt;stroke-linejoin:miter;stroke-opacity:0"
       d="M 132.52606,66.11281 C 119.92642,57.169656 102.88685,54.849004 88.354495,60.097001 73.822137,65.344997 62.196873,78.017233 58.218398,92.947157 c -3.978476,14.929923 -0.200688,31.706713 9.793135,43.490363 9.993824,11.78365 25.928684,18.24991 41.307837,16.76245 9.02156,-0.87256 17.76286,-4.35244 24.97532,-9.84156 7.21245,-5.48911 12.8828,-12.96276 16.31744,-21.35044 3.43464,-8.38767 4.63535,-17.66543 3.54662,-26.663456 -1.08874,-8.998029 -4.455,-17.699686 -9.62462,-25.144474 -5.58006,-8.035862 -13.24237,-14.590236 -21.97824,-18.994401 -8.73588,-4.404165 -18.5243,-6.663429 -28.307534,-6.686327 -19.566464,-0.04579 -38.748325,9.057574 -51.951719,23.497762 -13.203393,14.440188 -20.497958,33.881296 -21.22742,53.434216 -0.729462,19.55291 4.912375,39.12723 14.922769,55.93915 10.166165,17.07353 25.176353,31.6556 43.594373,39.11434 9.20901,3.72937 19.184734,5.6408 29.113021,5.26236 9.92828,-0.37844 19.79765,-3.07279 28.38717,-8.0662 8.58953,-4.9934 15.86409,-12.30516 20.54109,-21.07099 4.67701,-8.76582 6.70175,-18.97479 5.41807,-28.82701 -1.28367,-9.85222 -5.92089,-19.28555 -13.15022,-26.10104 -7.22932,-6.8155 -17.03362,-10.91012 -26.96899,-10.96027 -5.55431,-0.028 -11.09125,1.15957 -16.63094,0.75595 -3.27119,-0.23834 -6.473173,-1.02737 -9.701977,-1.60383 -3.228804,-0.57646 -6.556458,-0.93978 -9.778047,-0.32427 -3.648873,0.69714 -6.959697,2.61531 -9.911271,4.87108 -7.136063,5.4538 -12.615842,13.18586 -14.850349,21.88496 -2.234507,8.69909 -1.085815,18.32377 3.614163,25.97737 2.34999,3.8268 5.550292,7.13767 9.335278,9.55442 3.784986,2.41676 8.152496,3.93031 12.627937,4.3008 4.475441,0.37049 9.050447,-0.41024 13.119366,-2.31044 4.06892,-1.90019 7.61747,-4.9225 10.08061,-8.67747 2.74092,-4.17843 4.10612,-9.24344 3.8364,-14.23335 -0.26972,-4.98991 -2.17295,-9.87825 -5.3483,-13.73688 -3.13631,-3.81118 -7.49662,-6.59897 -12.27216,-7.84626 -4.775541,-1.24729 -9.942201,-0.94779 -14.541633,0.84295 -4.599433,1.79074 -8.60842,5.06367 -11.283347,9.21172 -2.674928,4.14804 -4.002292,9.15026 -3.735885,14.07881 0.266407,4.92854 2.125241,9.75853 5.231712,13.59407 3.106471,3.83554 7.444898,6.65726 12.21056,7.94178 4.765663,1.28452 9.934502,1.02534 14.547768,-0.72945 4.613265,-1.75479 8.647675,-4.99634 11.354885,-9.12339"
       id="path178"
       inkscape:connector-curvature="0"
       inkscape:path-effect="#path-effect180"
       inkscape:original-d="m 132.52606,66.11281 c -7.7353,29.02879 -15.47087,58.05784 -23.20669,87.08716 -7.73584,29.02932 23.47677,-55.33355 35.21476,-82.99993 11.73799,-27.666381 -72.361162,71.46 -108.542144,107.1904 -36.180982,35.7304 57.956613,-33.76614 86.934514,-50.64881 28.97791,-16.88267 -11.08703,0.50371 -16.63094,0.75595 -5.54392,0.25225 -12.986419,-1.28566 -19.480024,-1.9281 -6.493605,-0.64244 -6.607249,3.24712 -9.911271,4.87108 -3.304021,1.62395 22.618266,33.81949 33.927005,50.72964 11.30873,16.91014 -1.00767,-18.64709 -1.5119,-27.97023 -0.50424,-9.32315 1.0082,18.64655 1.5119,27.97023" />
    <path
       style="fill:#ff8080;stroke:#000000;stroke-width:0.26458332px;stroke-linecap:butt;stroke-linejoin:miter;stroke-opacity:1"
       d="M 93.139828,97.240996 84.824353,191.73505 129.88777,174.93501 Z"
       id="path182"
       inkscape:connector-curvature="0" />
    <path
       style="fill:#ff8080;stroke:#000000;stroke-width:0.26458332px;stroke-linecap:butt;stroke-linejoin:miter;stroke-opacity:1"
       d="m 123.81016,105.61816 24.35651,89.32827 0.75595,-3.02381 24.19047,-86.17857 -23.43452,65.0119 z"
       id="path184"
       inkscape:connector-curvature="0" />
    <rect
       style="fill:#c83737;fill-opacity:0;stroke-width:0.26458332"
       id="rect186"
       width="216.20239"
       height="255.5119"
       x="-9.3876486"
       y="21.707159" />
    <rect
       style="fill:#c83737;fill-opacity:0;stroke-width:0.26458332"
       id="rect188"
       width="59.083595"
       height="34.432133"
       x="39.090298"
       y="43.173813" />
    <rect
       style="fill:#c83737;fill-opacity:0;stroke-width:0.26458332"
       id="rect190"
       width="24.946428"
       height="45.357143"
       x="51.404762"
       y="7.4702382" />
    <rect
       style="fill:#c83737;fill-opacity:0;stroke-width:0.26458332"
       id="rect192"
       width="147.41072"
       height="65.767853"
       x="-145.89882"
       y="-65.101189" />
    <flowRoot
       xml:space="preserve"
       id="flowRoot196"
       style="fill:black;fill-opacity:1;stroke:none;font-family:'Cambria Math';font-style:normal;font-weight:normal;font-size:40px;line-height:1.25;letter-spacing:0px;word-spacing:0px;-inkscape-font-specification:'Cambria Math';font-stretch:normal;font-variant:normal;"><flowRegion
         id="flowRegion198"
         style="-inkscape-font-specification:'Cambria Math';font-family:'Cambria Math';font-weight:normal;font-style:normal;font-stretch:normal;font-variant:normal;"><rect
           id="rect200"
           width="681.76587"
           height="173.44141"
           x="32.519817"
           y="823.36401"
           style="-inkscape-font-specification:'Cambria Math';font-family:'Cambria Math';font-weight:normal;font-style:normal;font-stretch:normal;font-variant:normal" /></flowRegion><flowPara
         id="flowPara202"></flowPara></flowRoot>    <text
       xml:space="preserve"
       style="font-style:normal;font-variant:normal;font-weight:normal;font-stretch:normal;font-size:15.83965778px;line-height:162.97981262px;font-family:sans-serif;-inkscape-font-specification:sans-serif;text-align:start;letter-spacing:0px;word-spacing:0px;writing-mode:lr-tb;text-orientation:sideways;baseline-shift:baseline;text-anchor:start;fill:#de8787;fill-opacity:1;stroke:none;stroke-width:0.34924245"
       x="20.739958"
       y="227.78581"
       id="text206"
       transform="scale(1.0963547,0.91211356)"><tspan
         sodipodi:role="line"
         id="tspan204"
         x="20.739958"
         y="227.78581"
         style="font-style:normal;font-variant:normal;font-weight:normal;font-stretch:normal;font-family:Shruti;-inkscape-font-specification:Shruti;writing-mode:lr-tb;fill:#de8787;stroke-width:0.34924245">Antonella Del Vecchio</tspan></text>
    <flowRoot
       xml:space="preserve"
       id="flowRoot208"
       style="fill:black;fill-opacity:1;stroke:none;font-family:'Cambria Math';font-style:normal;font-weight:normal;font-size:40px;line-height:1.25;letter-spacing:0px;word-spacing:0px;-inkscape-font-specification:'Cambria Math';font-stretch:normal;font-variant:normal;"><flowRegion
         id="flowRegion210"
         style="-inkscape-font-specification:'Cambria Math';font-family:'Cambria Math';font-weight:normal;font-style:normal;font-stretch:normal;font-variant:normal;"><rect
           id="rect212"
           width="62.857143"
           height="54.285713"
           x="97.14286"
           y="882.51971"
           style="-inkscape-font-specification:'Cambria Math';font-family:'Cambria Math';font-weight:normal;font-style:normal;font-stretch:normal;font-variant:normal" /></flowRegion><flowPara
         id="flowPara214"></flowPara></flowRoot>    <flowRoot
       xml:space="preserve"
       id="flowRoot216"
       style="fill:black;fill-opacity:1;stroke:none;font-family:'Cambria Math';font-style:normal;font-weight:normal;font-size:40px;line-height:1.25;letter-spacing:0px;word-spacing:0px;-inkscape-font-specification:'Cambria Math';font-stretch:normal;font-variant:normal;"><flowRegion
         id="flowRegion218"
         style="-inkscape-font-specification:'Cambria Math';font-family:'Cambria Math';font-weight:normal;font-style:normal;font-stretch:normal;font-variant:normal;"><rect
           id="rect220"
           width="91.428574"
           height="82.85714"
           x="594.28571"
           y="871.09113"
           style="-inkscape-font-specification:'Cambria Math';font-family:'Cambria Math';font-weight:normal;font-style:normal;font-stretch:normal;font-variant:normal" /></flowRegion><flowPara
         id="flowPara222"></flowPara></flowRoot>    <flowRoot
       xml:space="preserve"
       id="flowRoot224"
       style="fill:black;fill-opacity:1;stroke:none;font-family:'Cambria Math';font-style:normal;font-weight:normal;font-size:40px;line-height:1.25;letter-spacing:0px;word-spacing:0px;-inkscape-font-specification:'Cambria Math';font-stretch:normal;font-variant:normal;"><flowRegion
         id="flowRegion226"
         style="-inkscape-font-specification:'Cambria Math';font-family:'Cambria Math';font-weight:normal;font-style:normal;font-stretch:normal;font-variant:normal;"><rect
           id="rect228"
           width="88.571426"
           height="65.714287"
           x="65.714287"
           y="888.23395"
           style="-inkscape-font-specification:'Cambria Math';font-family:'Cambria Math';font-weight:normal;font-style:normal;font-stretch:normal;font-variant:normal" /></flowRegion><flowPara
         id="flowPara230"></flowPara></flowRoot>    <flowRoot
       xml:space="preserve"
       id="flowRoot232"
       style="fill:black;fill-opacity:1;stroke:none;font-family:'Cambria Math';font-style:normal;font-weight:normal;font-size:40px;line-height:1.25;letter-spacing:0px;word-spacing:0px;-inkscape-font-specification:'Cambria Math';font-stretch:normal;font-variant:normal;"><flowRegion
         id="flowRegion234"
         style="-inkscape-font-specification:'Cambria Math';font-family:'Cambria Math';font-weight:normal;font-style:normal;font-stretch:normal;font-variant:normal;"><rect
           id="rect236"
           width="133.19449"
           height="59.155693"
           x="32.519806"
           y="823.36401"
           style="-inkscape-font-specification:'Cambria Math';font-family:'Cambria Math';font-weight:normal;font-style:normal;font-stretch:normal;font-variant:normal" /></flowRegion><flowPara
         id="flowPara238"></flowPara></flowRoot>    <g
       sodipodi:type="inkscape:box3d"
       id="g4750"
       style="fill:#de8787;fill-opacity:0;stroke:#000000;stroke-opacity:0"
       inkscape:perspectiveID="#perspective4748"
       inkscape:corner0="4.3422171 : 0.46368085 : 0 : 1"
       inkscape:corner7="-0.19160978 : 0.028130199 : 0.25 : 1">
      <path
         sodipodi:type="inkscape:box3dside"
         id="path4752"
         style="fill:#353564;fill-rule:evenodd;stroke:none;stroke-linejoin:round"
         inkscape:box3dsidetype="6"
         d="m 19.654761,70.970239 v 81.529941 l 8.509382,-0.17883 V 74.436206 Z"
         points="19.654761,152.50018 28.164143,152.32135 28.164143,74.436206 19.654761,70.970239 " />
      <path
         sodipodi:type="inkscape:box3dside"
         id="path4760"
         style="fill:#afafde;fill-rule:evenodd;stroke:none;stroke-linejoin:round"
         inkscape:box3dsidetype="13"
         d="M 19.654761,152.50018 129.88777,174.93501 148.8109,168.69086 28.164143,152.32135 Z"
         points="129.88777,174.93501 148.8109,168.69086 28.164143,152.32135 19.654761,152.50018 " />
      <path
         sodipodi:type="inkscape:box3dside"
         id="path4762"
         style="fill:#e9e9ff;fill-rule:evenodd;stroke:none;stroke-linejoin:round"
         inkscape:box3dsidetype="11"
         d="M 28.164143,74.436206 148.8109,-242.83093 V 168.69086 L 28.164143,152.32135 Z"
         points="148.8109,-242.83093 148.8109,168.69086 28.164143,152.32135 28.164143,74.436206 " />
      <path
         sodipodi:type="inkscape:box3dside"
         id="path4754"
         style="fill:#4d4d9f;fill-rule:evenodd;stroke:none;stroke-linejoin:round"
         inkscape:box3dsidetype="5"
         d="M 19.654761,70.970239 129.88777,-363.8526 148.8109,-242.83093 28.164143,74.436206 Z"
         points="129.88777,-363.8526 148.8109,-242.83093 28.164143,74.436206 19.654761,70.970239 " />
      <path
         sodipodi:type="inkscape:box3dside"
         id="path4758"
         style="fill:#d7d7ff;fill-rule:evenodd;stroke:none;stroke-linejoin:round"
         inkscape:box3dsidetype="14"
         d="m 129.88777,-363.8526 v 538.78761 l 18.92313,-6.24415 v -411.52179 z"
         points="129.88777,174.93501 148.8109,168.69086 148.8109,-242.83093 129.88777,-363.8526 " />
      <path
         sodipodi:type="inkscape:box3dside"
         id="path4756"
         style="fill:#8686bf;fill-rule:evenodd;stroke:none;stroke-linejoin:round"
         inkscape:box3dsidetype="3"
         d="M 19.654761,70.970239 129.88777,-363.8526 V 174.93501 L 19.654761,152.50018 Z"
         points="129.88777,-363.8526 129.88777,174.93501 19.654761,152.50018 19.654761,70.970239 " />
    </g>
    <path
       sodipodi:type="star"
       style="fill:#2b0000;fill-opacity:0;stroke:#000000;stroke-width:0.26458332;stroke-opacity:0"
       id="path4772"
       sodipodi:sides="5"
       sodipodi:cx="90.992737"
       sodipodi:cy="120.05798"
       sodipodi:r1="34.426567"
       sodipodi:r2="8.7618027"
       sodipodi:arg1="0.53111533"
       sodipodi:arg2="1.1594339"
       inkscape:flatsided="false"
       inkscape:rounded="0"
       inkscape:randomized="0"
       d="M 120.67679,137.49488 94.496218,128.08885 83.582141,153.6775 84.437565,125.87167 56.728681,123.39909 83.437937,115.62017 77.226981,88.503388 92.878786,111.50158 116.74909,97.215066 99.713179,119.20765 Z"
       inkscape:transform-center-x="2.2900005"
       inkscape:transform-center-y="1.0324574" />
  </g>
</svg>
